<svg width="230" height="88" viewBox="0 0 230 88" fill="none" xmlns="http://www.w3.org/2000/svg">
<g clip-path="url(#clip0)">
<path fill-rule="evenodd" clip-rule="evenodd" d="M100.992 73.4671C101.306 73.1996 101.44 72.7984 101.44 72.308C101.485 71.2827 100.858 70.7477 99.6024 70.7477H98.6611V73.9129H99.6024C100.23 73.9129 100.678 73.7345 100.992 73.4671Z" fill="#00CFA6"/>
<path fill-rule="evenodd" clip-rule="evenodd" d="M229.955 61.921H0V75.4286C0 82.383 5.69285 88 12.7305 88H217.314C224.307 88 230.045 82.3384 230.045 75.4286V61.921H229.955ZM103.188 79.8419C102.471 80.4215 101.395 80.7335 99.961 80.7335H96.5543V69.0537H99.8265C101.037 69.0537 101.933 69.3212 102.561 69.8115C103.188 70.3465 103.502 71.0598 103.502 71.9959C103.502 72.5755 103.413 73.0658 103.144 73.4671C102.875 73.8683 102.561 74.1803 102.068 74.4478C102.695 74.6261 103.233 74.9828 103.637 75.4286C104.04 75.9189 104.219 76.543 104.219 77.3455C104.264 78.4154 103.906 79.2178 103.188 79.8419ZM118.743 80.7335H111.84V69.0537H118.564V70.9706H114.081V73.7345H118.115V75.696H114.081V78.772H118.743V80.7335ZM134.746 71.1043H131.115V80.6889H128.874V71.1043H125.287V69.0091H134.746V71.1043Z" fill="#00CFA6"/>
<path fill-rule="evenodd" clip-rule="evenodd" d="M100.051 75.6069H98.6611V78.9949H99.961C100.723 78.9949 101.261 78.8612 101.62 78.5491C101.978 78.2371 102.113 77.8359 102.113 77.3009C102.113 76.8105 101.933 76.3647 101.62 76.0527C101.306 75.7406 100.813 75.6069 100.051 75.6069Z" fill="#00CFA6"/>
<path d="M61.2765 7.44478C61.2765 11.4124 57.8698 14.8896 53.7907 14.8896C49.7564 14.8896 46.3048 11.5461 46.3048 7.44478C46.3048 3.34347 49.7116 0 53.7907 0C58.0491 0.0445795 61.2765 3.43262 61.2765 7.44478Z" fill="#FF2400"/>
<path d="M107.537 20.2391C107.537 8.96049 98.1232 0 86.6479 0C75.1725 0 65.804 8.96049 65.5798 20.15V55.5907H81.1791V20.5512C81.1791 17.386 83.779 14.7558 86.872 14.7558C90.0994 14.7558 92.5648 17.2969 92.5648 20.5512V55.5907H107.537V54.2979V20.2391Z" fill="#FF2400"/>
<path d="M141.559 35.4853V1.24823H157.383V35.1287C157.383 38.2938 159.758 40.924 163.075 40.924C166.124 40.924 168.768 38.383 168.768 35.1287V1.24823H183.74V35.307C183.74 46.5856 174.147 55.6353 162.672 55.6353C151.197 55.5907 141.828 46.6302 141.559 35.4853Z" fill="#FF2400"/>
<path d="M61.2765 19.2583H46.3048V55.5461H61.2765V19.2583Z" fill="#FF2400"/>
<path d="M111.882 20.9973V33.9699H137.253V20.9973H111.882Z" fill="#FF2400"/>
<path d="M35.9053 5.97366C31.8262 1.91692 26.8505 0 20.7542 0C17.7958 0 14.9717 0.624114 11.9236 1.91692C9.09959 3.16515 6.76866 4.90375 4.75151 7.26646C1.47924 11.1003 0 16.0486 0 22.2452V55.5907H14.9269V22.7356C14.9269 17.386 16.8992 14.845 20.8439 14.845C22.5473 14.845 23.8472 15.4691 24.923 16.539C25.9988 17.6089 26.6264 18.9017 26.6264 20.5957C26.6264 22.1115 25.9988 23.5826 24.923 24.6525C23.8472 25.7224 22.5024 26.3465 21.0232 26.3465C20.4405 26.3465 19.8577 26.2128 19.275 25.9899V41.6819C20.1715 41.7264 20.9335 41.771 21.4714 41.771C27.1643 41.771 31.9158 39.6312 35.9501 35.5745C40.0292 31.4732 42.0016 26.614 42.0016 20.7741C42.0016 14.9341 40.0292 10.0304 35.9053 5.97366Z" fill="#FF2400"/>
<path d="M223.949 5.97366C219.869 1.91692 214.849 0 208.798 0C205.839 0 203.015 0.624114 199.967 1.91692C197.143 3.16515 194.812 4.90375 192.795 7.26646C189.523 11.1003 188.043 16.0041 188.043 22.2006V55.5461H202.97V22.7356C202.97 17.386 204.943 14.845 208.887 14.845C210.591 14.845 211.891 15.4691 212.966 16.539C214.042 17.6089 214.67 18.9017 214.67 20.5957C214.67 22.1115 214.042 23.5826 212.966 24.6525C211.891 25.7224 210.546 26.3465 209.066 26.3465C208.484 26.3465 207.901 26.2128 207.318 25.9899V41.6819C208.215 41.7264 208.977 41.771 209.515 41.771C215.208 41.771 219.959 39.6312 223.993 35.5745C228.073 31.4732 230.045 26.614 230.045 20.7741C230 14.9341 228.028 10.0304 223.949 5.97366Z" fill="#FF2400"/>
</g>
<defs>
<clipPath id="clip0">
<rect width="230" height="88" fill="white"/>
</clipPath>
</defs>
</svg>
